solid OpenSCAD_Model
  facet normal 0 0 -1
    outer loop
      vertex 0 108.82 0
      vertex 65 108.82 0
      vertex 38.5 0 0
    endloop
  endfacet
  facet normal 0 0 -1
    outer loop
      vertex 0 108.82 0
      vertex 38.5 0 0
      vertex 26.5 0 0
    endloop
  endfacet
  facet normal 0 -0 1
    outer loop
      vertex 38.5 0 12
      vertex 65 108.82 12
      vertex 0 108.82 12
    endloop
  endfacet
  facet normal 0 -0 1
    outer loop
      vertex 26.5 0 12
      vertex 38.5 0 12
      vertex 0 108.82 12
    endloop
  endfacet
  facet normal 0 1 0
    outer loop
      vertex 0 108.82 0
      vertex 65 108.82 12
      vertex 65 108.82 0
    endloop
  endfacet
  facet normal 0 1 0
    outer loop
      vertex 0 108.82 0
      vertex 0 108.82 12
      vertex 65 108.82 12
    endloop
  endfacet
  facet normal -0.971606 -0.236607 0
    outer loop
      vertex 26.5 0 0
      vertex 0 108.82 12
      vertex 0 108.82 0
    endloop
  endfacet
  facet normal -0.971606 -0.236607 0
    outer loop
      vertex 26.5 0 0
      vertex 26.5 0 12
      vertex 0 108.82 12
    endloop
  endfacet
  facet normal 0 -1 0
    outer loop
      vertex 38.5 0 0
      vertex 26.5 0 12
      vertex 26.5 0 0
    endloop
  endfacet
  facet normal 0 -1 0
    outer loop
      vertex 38.5 0 0
      vertex 38.5 0 12
      vertex 26.5 0 12
    endloop
  endfacet
  facet normal 0.971606 -0.236607 0
    outer loop
      vertex 65 108.82 0
      vertex 38.5 0 12
      vertex 38.5 0 0
    endloop
  endfacet
  facet normal 0.971606 -0.236607 0
    outer loop
      vertex 65 108.82 0
      vertex 65 108.82 12
      vertex 38.5 0 12
    endloop
  endfacet
endsolid OpenSCAD_Model
